<svg width="461" height="86" viewBox="0 0 461 86" fill="none" xmlns="http://www.w3.org/2000/svg">
<g clip-path="url(#clip0)">
<path d="M102.65 38.711H113.26C115.756 38.6873 118.25 38.8532 120.72 39.2073C122.567 39.4808 124.385 39.9227 126.15 40.5274C128.466 41.3108 130.61 42.5234 132.47 44.1007C133.608 45.1181 134.634 46.2527 135.53 47.4855C136.5 48.818 137.324 50.2487 137.99 51.7536C138.705 53.3466 139.248 55.0102 139.61 56.7166C139.986 58.4686 140.174 60.2554 140.17 62.0468C140.174 64.12 139.909 66.1852 139.38 68.1909C138.874 70.1589 138.121 72.0563 137.14 73.8388C136.183 75.5786 134.992 77.1814 133.6 78.6032C132.251 79.9916 130.7 81.1726 129 82.1071C127.881 82.7024 126.71 83.1942 125.5 83.5761C124.229 83.9979 122.929 84.3296 121.61 84.5687C120.25 84.7998 118.878 84.9555 117.5 85.0352C116.11 85.1245 114.77 85.1642 113.5 85.1642H102.7L102.65 38.711ZM111.3 77.0845H113.14C114.31 77.0845 115.4 77.0845 116.39 76.9952C117.38 76.9059 118.32 76.8265 119.2 76.6776C120.089 76.5272 120.965 76.3082 121.82 76.0225C122.747 75.696 123.646 75.2977 124.51 74.8314C125.628 74.2083 126.641 73.4144 127.51 72.4789C128.385 71.5473 129.128 70.5021 129.72 69.3721C130.309 68.2394 130.756 67.0394 131.05 65.7988C131.339 64.5653 131.487 63.3033 131.49 62.0369C131.504 59.8339 131.04 57.6538 130.13 55.6446C129.302 53.7362 128.075 52.0243 126.53 50.6221C124.816 49.0473 122.711 47.9543 120.43 47.4557C117.969 46.9554 115.462 46.7125 112.95 46.7311H111.3V77.0845Z" fill="#022456"/>
<path d="M181.62 85.115H173.91V80.7873C173.199 81.62 172.382 82.3574 171.48 82.981C170.535 83.6468 169.531 84.2249 168.48 84.7081C167.39 85.1871 166.259 85.5659 165.1 85.8396C163.979 86.1023 162.832 86.2388 161.68 86.2466C159.458 86.2531 157.257 85.8142 155.21 84.9562C153.162 84.0938 151.314 82.8235 149.78 81.2241C148.142 79.5056 146.863 77.4812 146.02 75.2685C145.055 72.7906 144.573 70.1531 144.6 67.4965C144.572 64.9707 145.048 62.4643 146 60.1216C146.869 57.9692 148.146 56.0016 149.76 54.3249C151.362 52.6644 153.29 51.3465 155.424 50.4521C157.558 49.5577 159.853 49.1056 162.17 49.1237C163.797 49.0962 165.415 49.3723 166.94 49.9376C168.201 50.4039 169.407 51.0029 170.54 51.7243C171.382 52.2519 172.155 52.8822 172.84 53.6003C173.38 54.2058 173.7 54.5929 173.78 54.7021H173.91V50.3148H181.62V85.115ZM173.62 67.6157C173.651 65.9938 173.348 64.3826 172.73 62.881C172.192 61.6077 171.4 60.4561 170.4 59.4963C169.443 58.6293 168.326 57.955 167.11 57.5111C165.919 57.0563 164.655 56.8209 163.38 56.8163C161.805 56.782 160.245 57.1224 158.83 57.8089C157.573 58.442 156.466 59.3316 155.58 60.4194C154.701 61.4807 154.023 62.6914 153.58 63.9927C153.148 65.2557 152.925 66.5797 152.92 67.9134C152.912 69.3404 153.18 70.7556 153.71 72.0823C154.244 73.3391 155.022 74.4791 156 75.4373C156.93 76.4064 158.045 77.1824 159.28 77.7202C160.593 78.2965 162.014 78.5876 163.45 78.5739C164.841 78.5783 166.219 78.3013 167.5 77.7599C168.728 77.235 169.834 76.4647 170.75 75.4968C171.682 74.4962 172.412 73.3268 172.9 72.0525C173.439 70.6284 173.707 69.1171 173.69 67.5958" fill="#022456"/>
<path d="M202 59.7841C201.916 59.1984 201.701 58.6389 201.37 58.1464C201.133 57.7824 200.819 57.4742 200.45 57.2431C200.144 57.0556 199.805 56.9276 199.45 56.8659C199.178 56.8059 198.9 56.7727 198.62 56.7667C198.171 56.7428 197.722 56.8196 197.306 56.9915C196.891 57.1633 196.52 57.4257 196.22 57.7592C195.712 58.323 195.421 59.0475 195.4 59.804C195.387 60.2387 195.487 60.6694 195.69 61.0546C195.935 61.4423 196.281 61.7576 196.69 61.9678C197.273 62.2876 197.886 62.5502 198.52 62.752L201.36 63.685C202.46 64.0225 203.58 64.4195 204.74 64.8761C205.888 65.3344 206.954 65.971 207.9 66.7621C208.98 67.6491 209.836 68.7742 210.4 70.0477C210.965 71.3212 211.221 72.7079 211.15 74.0973C211.191 75.8887 210.825 77.6662 210.08 79.2985C209.406 80.7463 208.451 82.0482 207.27 83.1299C206.13 84.1592 204.798 84.9582 203.35 85.4823C201.924 85.997 200.418 86.2624 198.9 86.2665C197.978 86.2615 197.057 86.1751 196.15 86.0084C195.199 85.8415 194.268 85.5787 193.37 85.2242C192.434 84.859 191.545 84.3859 190.72 83.8148C189.844 83.2263 189.064 82.5064 188.41 81.6807C187.411 80.539 186.698 79.1784 186.33 77.7103C186.048 76.5354 185.858 75.3408 185.76 74.137H194.35C194.453 74.5933 194.58 75.0439 194.73 75.4869C194.898 76.0188 195.155 76.5188 195.49 76.9659C195.839 77.4421 196.29 77.8354 196.81 78.1173C197.472 78.4609 198.214 78.6252 198.96 78.5937C199.559 78.6067 200.153 78.4881 200.7 78.2463C201.154 78.0577 201.562 77.777 201.9 77.4225C202.18 77.0829 202.403 76.7008 202.56 76.2909C202.704 75.9202 202.778 75.5267 202.78 75.1296C202.81 74.5465 202.679 73.9663 202.4 73.4521C202.079 72.9456 201.635 72.5261 201.11 72.2312C200.339 71.7792 199.521 71.4099 198.67 71.1295C197.67 70.7721 196.4 70.3453 194.88 69.849C193.869 69.5133 192.897 69.0707 191.98 68.5289C191.051 67.9961 190.208 67.3268 189.48 66.5437C188.731 65.6974 188.133 64.7307 187.71 63.685C187.249 62.4846 187.025 61.2075 187.05 59.9231C187.015 58.36 187.358 56.8113 188.05 55.4068C188.724 54.1037 189.648 52.9438 190.77 51.9923C191.887 51.0507 193.173 50.3267 194.56 49.8582C195.911 49.3923 197.33 49.1509 198.76 49.1436C200.106 49.1503 201.442 49.3819 202.71 49.8284C204.023 50.2655 205.243 50.9384 206.31 51.8136C207.414 52.7634 208.327 53.9118 209 55.1984C209.734 56.6213 210.143 58.1868 210.2 59.7841H202Z" fill="#022456"/>
<path d="M215.79 38.7109H224.2V52.7561C224.45 52.5079 224.83 52.1705 225.33 51.7635C225.909 51.3015 226.535 50.9021 227.2 50.5724C228.038 50.1566 228.916 49.8241 229.82 49.5798C230.949 49.27 232.118 49.1229 233.29 49.1431C234.302 49.1412 235.31 49.268 236.29 49.5202C237.298 49.7785 238.274 50.148 239.2 50.622C240.147 51.104 241.048 51.6722 241.89 52.3194C242.711 52.9504 243.453 53.6769 244.1 54.4832C244.767 55.3492 245.299 56.3094 245.68 57.3319C246.048 58.3191 246.332 59.3351 246.53 60.3693C246.711 61.3122 246.815 62.2683 246.84 63.2279C246.84 64.1213 246.84 64.8856 246.84 65.5208V85.1146H238.43V67.3075C238.43 66.3844 238.38 65.3223 238.28 64.0716C238.184 62.8847 237.894 61.7212 237.42 60.6273C236.947 59.5519 236.207 58.6128 235.27 57.8977C234.102 57.0869 232.693 56.6885 231.27 56.7662C229.793 56.6702 228.333 57.1191 227.17 58.0268C226.222 58.8267 225.493 59.8508 225.05 61.0045C224.612 62.1255 224.356 63.308 224.29 64.5084C224.23 65.7127 224.2 66.6855 224.2 67.4266V85.1146H215.79V38.7109Z" fill="#022456"/>
<path d="M302.16 72.1914C301.257 74.298 300.022 76.2481 298.5 77.9683C297.005 79.6606 295.27 81.1284 293.35 82.3258C291.431 83.5161 289.359 84.4443 287.19 85.0852C285.04 85.7329 282.807 86.0673 280.56 86.0778C277.285 86.0821 274.046 85.4059 271.05 84.0926C265.182 81.5606 260.524 76.8775 258.05 71.0201C256.787 68.0732 256.141 64.9022 256.15 61.6997C256.138 58.5757 256.768 55.4821 258 52.6076C259.209 49.7565 260.957 47.162 263.15 44.9646C265.36 42.7503 267.973 40.9719 270.85 39.7238C273.835 38.4086 277.065 37.7322 280.33 37.7386C282.388 37.752 284.437 38.0154 286.43 38.5227C290.913 39.6366 294.972 42.0235 298.11 45.3914C299.897 47.3079 301.341 49.5134 302.38 51.9128H292.52C290.966 50.101 289.096 48.5813 287 47.4263C284.857 46.3139 282.468 45.7541 280.05 45.7984C278.124 45.8055 276.22 46.2112 274.46 46.9895C272.633 47.7784 270.981 48.9186 269.6 50.3445C268.157 51.8344 266.989 53.5647 266.15 55.4563C265.26 57.4707 264.81 59.6492 264.83 61.8486C264.822 63.9831 265.251 66.0971 266.09 68.0622C267.695 71.8798 270.681 74.9635 274.46 76.7077C276.305 77.5819 278.325 78.0331 280.37 78.0278C281.783 78.0493 283.19 77.8483 284.54 77.4323C285.684 77.0704 286.777 76.5633 287.79 75.9235C288.679 75.3635 289.516 74.7257 290.29 74.0178C291 73.3428 291.61 72.7373 292.12 72.1914H302.16Z" fill="#3A90F6"/>
<path d="M342 85.115H334.29V80.7873C333.579 81.62 332.763 82.3574 331.86 82.981C330.916 83.6468 329.911 84.2249 328.86 84.7081C327.771 85.1886 326.64 85.5674 325.48 85.8396C324.362 86.1017 323.219 86.2382 322.07 86.2466C319.845 86.2541 317.641 85.8152 315.59 84.9562C313.542 84.0938 311.694 82.8235 310.16 81.2241C308.522 79.5056 307.244 77.4812 306.4 75.2685C305.442 72.7893 304.967 70.1518 305 67.4965C304.97 64.9713 305.442 62.465 306.39 60.1216C307.26 57.9692 308.536 56.0016 310.15 54.3249C311.755 52.6681 313.683 51.3527 315.817 50.4586C317.95 49.5645 320.244 49.1103 322.56 49.1237C324.187 49.0962 325.806 49.3723 327.33 49.9376C328.591 50.4039 329.798 51.0029 330.93 51.7243C331.78 52.2506 332.559 52.8808 333.25 53.6003C333.8 54.2058 334.11 54.5929 334.2 54.7021H334.32V50.3148H342V85.115ZM334 67.6157C334.031 65.9938 333.729 64.3826 333.11 62.881C332.576 61.6058 331.783 60.4535 330.78 59.4963C329.823 58.6293 328.706 57.955 327.49 57.5111C326.303 57.0573 325.042 56.8218 323.77 56.8163C322.195 56.7797 320.635 57.1202 319.22 57.8089C317.979 58.4354 316.883 59.3108 316 60.3797C315.125 61.4434 314.448 62.6535 314 63.953C313.568 65.216 313.345 66.54 313.34 67.8737C313.332 69.3007 313.601 70.7159 314.13 72.0426C314.651 73.3083 315.415 74.4613 316.38 75.4373C317.314 76.4067 318.432 77.1826 319.67 77.7202C320.982 78.2986 322.405 78.5898 323.84 78.5739C325.215 78.5729 326.576 78.2961 327.84 77.7599C329.07 77.2376 330.177 76.4668 331.09 75.4968C332.023 74.4962 332.753 73.3268 333.24 72.0525C333.784 70.6297 334.052 69.1175 334.03 67.5958" fill="#3A90F6"/>
<path d="M362.43 59.784C362.345 59.1983 362.13 58.6387 361.8 58.1462C361.563 57.7858 361.253 57.4782 360.89 57.2429C360.582 57.0587 360.243 56.931 359.89 56.8657C359.621 56.8059 359.346 56.7726 359.07 56.7665C358.62 56.7382 358.17 56.813 357.753 56.9851C357.337 57.1572 356.967 57.4221 356.67 57.7591C356.155 58.3195 355.86 59.0454 355.84 59.8038C355.827 60.2385 355.927 60.6692 356.13 61.0545C356.375 61.4421 356.72 61.7574 357.13 61.9677C357.713 62.2874 358.326 62.55 358.96 62.7518L361.8 63.6849C362.9 64.0223 364.02 64.4194 365.18 64.876C366.327 65.3343 367.394 65.9709 368.34 66.7619C369.42 67.6489 370.276 68.774 370.84 70.0475C371.404 71.321 371.661 72.7077 371.59 74.0971C371.63 75.8885 371.265 77.666 370.52 79.2983C369.846 80.7462 368.891 82.0481 367.71 83.1297C366.571 84.1611 365.239 84.9604 363.79 85.4822C362.363 85.9969 360.858 86.2622 359.34 86.2663C358.417 86.2613 357.497 86.175 356.59 86.0082C355.639 85.84 354.708 85.5773 353.81 85.2241C352.874 84.8588 351.985 84.3857 351.16 83.8146C350.283 83.2261 349.504 82.5062 348.85 81.6805C347.854 80.5363 347.142 79.1766 346.77 77.7102C346.488 76.5353 346.298 75.3407 346.2 74.1368H354.79C354.893 74.5931 355.02 75.0437 355.17 75.4868C355.342 76.0169 355.599 76.5162 355.93 76.9657C356.282 77.4389 356.732 77.8315 357.25 78.1171C357.912 78.4607 358.654 78.6251 359.4 78.5936C359.999 78.6086 360.593 78.4898 361.14 78.2462C361.587 78.0394 361.986 77.7418 362.31 77.3727C362.59 77.0331 362.812 76.651 362.97 76.2411C363.113 75.8704 363.188 75.4769 363.19 75.0798C363.21 74.5229 363.079 73.9708 362.81 73.4817C362.488 72.9752 362.045 72.5557 361.52 72.2608C360.751 71.8105 359.936 71.4413 359.09 71.1591C358.09 70.8017 356.81 70.3749 355.3 69.8786C354.285 69.5428 353.31 69.1002 352.39 68.5585C351.461 68.0257 350.618 67.3564 349.89 66.5733C349.141 65.727 348.542 64.7603 348.12 63.7146C347.659 62.5142 347.435 61.2371 347.46 59.9527C347.425 58.3896 347.768 56.8409 348.46 55.4364C349.134 54.1333 350.058 52.9734 351.18 52.0219C352.303 51.0613 353.599 50.3204 355 49.8382C356.351 49.3723 357.77 49.1308 359.2 49.1235C360.563 49.1247 361.915 49.3563 363.2 49.8084C364.512 50.2455 365.733 50.9184 366.8 51.7936C367.903 52.7319 368.816 53.8706 369.49 55.1486C370.223 56.5715 370.633 58.137 370.69 59.7343L362.43 59.784Z" fill="#3A90F6"/>
<path d="M378.23 57.7091H374.12V50.3143H378.23V38.7109H386.63V50.3143H391.68V57.7091H386.63V85.1146H378.23V57.7091Z" fill="#3A90F6"/>
<path d="M402.55 71.4668C402.693 72.2085 402.971 72.9182 403.37 73.5611C403.882 74.435 404.522 75.228 405.27 75.9136C406.134 76.7074 407.124 77.3546 408.2 77.8293C409.461 78.3728 410.826 78.6403 412.2 78.6134C415.954 78.6134 418.65 77.1278 420.29 74.1567H429.14C428.61 75.7863 427.82 77.3211 426.8 78.7028C425.727 80.1582 424.447 81.4521 423 82.5441C421.484 83.6917 419.797 84.5991 418 85.234C416.126 85.9097 414.144 86.2459 412.15 86.2266C409.613 86.2469 407.099 85.7538 404.76 84.7774C402.555 83.8581 400.559 82.5079 398.89 80.8071C397.236 79.1194 395.926 77.131 395.03 74.9508C394.102 72.6677 393.633 70.2263 393.65 67.7644C393.658 65.3526 394.115 62.9632 395 60.717C395.856 58.5168 397.121 56.4963 398.73 54.7615C400.44 52.9434 402.515 51.5021 404.822 50.5308C407.129 49.5596 409.615 49.0802 412.12 49.1235C414.634 49.0739 417.129 49.5635 419.435 50.5587C421.741 51.554 423.803 53.0316 425.48 54.8905C428.52 58.3 430.214 62.6858 430.25 67.2383C430.255 68.0052 430.205 68.7714 430.1 69.5312C429.99 70.2161 429.87 70.8613 429.75 71.4469L402.55 71.4668ZM421.69 64.7569C421.483 63.4989 421.057 62.2864 420.43 61.1736C419.338 59.2757 417.545 57.8734 415.43 57.2628C414.374 56.9415 413.275 56.7809 412.17 56.7863C411.247 56.7986 410.327 56.9151 409.43 57.1338C408.408 57.3758 407.434 57.7887 406.55 58.3546C405.566 58.9974 404.702 59.8072 404 60.7468C403.152 61.9364 402.563 63.2887 402.27 64.7171L421.69 64.7569Z" fill="#3A90F6"/>
<path d="M436.16 50.3143H443.87V53.3814H444C444.38 52.8454 444.78 52.3094 445.2 51.7834C445.626 51.2538 446.128 50.789 446.69 50.4037C447.3 49.9705 447.975 49.6355 448.69 49.4111C449.605 49.1669 450.552 49.0533 451.5 49.0736H452.2V57.1632C450.646 57.1503 449.117 57.5477 447.77 58.3146C446.826 58.8966 446.045 59.7057 445.5 60.6671C445.049 61.5043 444.77 62.422 444.68 63.3669C444.59 64.29 444.55 64.9948 444.55 65.501V85.1146H436.15L436.16 50.3143Z" fill="#3A90F6"/>
<path d="M68.0003 41.5201H60.0003C59.9976 39.4077 59.5757 37.3164 58.7585 35.3658C57.9413 33.4153 56.745 31.6436 55.2377 30.1522C53.7305 28.6607 51.942 27.4787 49.9743 26.6736C48.0067 25.8685 45.8985 25.4561 43.7703 25.46V17.5193C46.9491 17.5154 50.0976 18.1332 53.0358 19.3373C55.974 20.5415 58.6445 22.3084 60.8946 24.5373C63.1447 26.7661 64.9303 29.4131 66.1495 32.327C67.3688 35.241 67.9976 38.3649 68.0003 41.5201Z" fill="#3A90F6"/>
<path d="M85.6003 41.5201H77.6003C77.5897 32.6175 74.0221 24.0826 67.68 17.7875C61.3379 11.4924 52.7393 7.95123 43.7703 7.94073V0C54.8602 0.0131342 65.4921 4.39178 73.3339 12.1755C81.1757 19.9591 85.587 30.5123 85.6003 41.5201Z" fill="#3A90F6"/>
<path d="M43.77 84.9658H6.57003C5.70509 84.9645 4.84889 84.794 4.05042 84.4639C3.25194 84.1339 2.52686 83.6508 1.91665 83.0424C1.30644 82.4339 0.823071 81.712 0.494198 80.9179C0.165325 80.1239 -0.00259958 79.2733 3.04209e-05 78.4147V24.0406C0.00267532 22.3119 0.695719 20.6547 1.92726 19.4322C3.1588 18.2098 4.82837 17.5219 6.57003 17.5193H34V25.46H8.00003V77.0747H43.77C45.9025 77.0787 48.0148 76.6647 49.9856 75.8565C51.9566 75.0483 53.7473 73.8618 55.2552 72.3651C56.7631 70.8684 57.9584 69.0909 58.7726 67.1346C59.5869 65.1783 60.004 63.0817 60 60.965V51.2376H68V60.965C67.9921 67.3366 65.4351 73.4442 60.8914 77.945C56.3477 82.4457 50.1892 84.9711 43.77 84.9658Z" fill="#022456"/>
<path d="M37.3297 65.4021H30.6197C27.7313 65.3969 24.9624 64.257 22.9181 62.2316C20.8738 60.2061 19.7203 57.4598 19.7097 54.5928V47.9127C19.7124 45.0414 20.8627 42.2885 22.9081 40.2582C24.9536 38.2279 27.727 37.0861 30.6197 37.0835H37.3297C40.2224 37.0861 42.9959 38.2279 45.0413 40.2582C47.0868 42.2885 48.2371 45.0414 48.2397 47.9127H40.2397C40.2397 47.5333 40.1644 47.1577 40.0182 46.8073C39.872 46.4569 39.6576 46.1384 39.3874 45.8702C39.1172 45.602 38.7964 45.3893 38.4433 45.2441C38.0903 45.0989 37.7119 45.0242 37.3297 45.0242H30.6197C29.8479 45.0242 29.1078 45.3285 28.562 45.8702C28.0163 46.4119 27.7097 47.1466 27.7097 47.9127V54.5928C27.7124 55.3581 28.0198 56.0912 28.5649 56.6323C29.1101 57.1735 29.8487 57.4786 30.6197 57.4812H37.3297C37.7119 57.4812 38.0903 57.4065 38.4433 57.2614C38.7964 57.1162 39.1172 56.9035 39.3874 56.6352C39.6576 56.367 39.872 56.0486 40.0182 55.6982C40.1644 55.3477 40.2397 54.9721 40.2397 54.5928H48.2397C48.2318 57.4606 47.0791 60.2084 45.0343 62.2345C42.9894 64.2605 40.219 65.3995 37.3297 65.4021Z" fill="#3A90F6"/>
</g>
<defs>
<clipPath id="clip0">
<rect width="461" height="86" fill="white"/>
</clipPath>
</defs>
</svg>
